<?xml version="1.0" encoding="utf-8"?>
<!-- Generator: Adobe Illustrator 25.2.0, SVG Export Plug-In . SVG Version: 6.00 Build 0)  -->
<svg version="1.1" id="Layer_1" xmlns="http://www.w3.org/2000/svg" xmlns:xlink="http://www.w3.org/1999/xlink" x="0px" y="0px"
	 viewBox="0 0 110.98 110.98" style="enable-background:new 0 0 110.98 110.98;" xml:space="preserve">
<style type="text/css">
	.st0{fill:#FFFFFF;stroke:#000000;stroke-width:2;stroke-miterlimit:10;}
	.st1{fill:#020303;}
	.st2{fill:#FFFFFF;stroke:#000000;stroke-width:0.5;stroke-miterlimit:10;}
	.st3{fill:#E41E1C;}
</style>
<path class="st0" d="M105.15,109.98H5.83c-2.67,0-4.83-2.16-4.83-4.83V5.83C1,3.16,3.16,1,5.83,1h99.32c2.67,0,4.83,2.16,4.83,4.83
	v99.32C109.98,107.82,107.82,109.98,105.15,109.98z"/>
<g>
	<rect x="61.37" y="6.51" class="st1" width="3.91" height="3.92"/>
	<path d="M100.56,6.51h-3.92h-3.92H88.8h-3.92h-3.91h-3.92v3.92v3.92v3.92v3.92v3.92v3.92v3.92h3.92h3.91h3.92h3.92h3.92h3.92h3.92
		v-3.92V26.1v-3.92v-3.92v-3.92v-3.92V6.51H100.56z M100.56,14.34v3.92v3.92v3.92v3.92h-3.92h-3.92H88.8h-3.92h-3.91V26.1v-3.92
		v-3.92v-3.92v-3.92h3.91h3.92h3.92h3.92h3.92V14.34z"/>
	<polygon points="88.8,14.34 84.88,14.34 84.88,18.26 84.88,22.18 84.88,26.1 88.8,26.1 92.72,26.1 96.63,26.1 96.63,22.18 
		96.63,18.26 96.63,14.34 92.72,14.34 	"/>
	<polygon class="st1" points="69.2,18.26 73.12,18.26 73.12,14.34 73.12,10.43 69.2,10.43 69.2,14.34 65.28,14.34 65.28,18.26 
		65.28,22.18 69.2,22.18 	"/>
	<polygon points="22.18,26.1 26.1,26.1 26.1,22.18 26.1,18.26 26.1,14.34 22.18,14.34 18.26,14.34 14.34,14.34 14.34,18.26 
		14.34,22.18 14.34,26.1 18.26,26.1 	"/>
	<polygon class="st1" points="57.45,26.1 57.45,30.02 61.37,30.02 61.37,33.94 65.28,33.94 65.28,30.02 65.28,26.1 65.28,22.18 
		61.37,22.18 61.37,26.1 	"/>
	<path d="M14.34,33.94h3.92h3.92h3.91h3.92h3.92v-3.92V26.1v-3.92v-3.92v-3.92v-3.92V6.51h-3.92H26.1h-3.91h-3.92h-3.92h-3.92H6.51
		v3.92v3.92v3.92v3.92v3.92v3.92v3.92h3.92H14.34z M10.43,26.1v-3.92v-3.92v-3.92v-3.92h3.92h3.92h3.92h3.91h3.92v3.92v3.92v3.92
		v3.92v3.92H26.1h-3.91h-3.92h-3.92h-3.92V26.1z"/>
	<rect x="69.2" y="30.02" class="st1" width="3.92" height="3.92"/>
	<polygon class="st1" points="18.26,37.86 14.34,37.86 10.43,37.86 6.51,37.86 6.51,41.78 10.43,41.78 14.34,41.78 14.34,45.69 
		18.26,45.69 18.26,41.78 	"/>
	<polygon class="st1" points="33.94,41.78 33.94,37.86 30.02,37.86 26.1,37.86 26.1,41.78 30.02,41.78 	"/>
	<polygon class="st1" points="84.88,37.86 80.96,37.86 77.04,37.86 73.12,37.86 73.12,41.78 69.2,41.78 69.2,37.86 65.28,37.86 
		65.28,41.78 65.28,45.69 61.37,45.69 61.37,49.61 61.37,53.53 65.28,53.53 65.28,49.61 69.2,49.61 69.2,45.69 73.12,45.69 
		77.04,45.69 77.04,49.61 73.12,49.61 69.2,49.61 69.2,53.53 65.28,53.53 65.28,57.45 65.28,61.36 65.28,65.29 69.2,65.29 
		69.2,61.36 73.12,61.36 73.12,57.45 77.04,57.45 77.04,61.36 80.96,61.36 84.88,61.36 84.88,57.45 80.96,57.45 80.96,53.53 
		84.88,53.53 84.88,49.61 80.96,49.61 80.96,45.69 84.88,45.69 84.88,41.78 88.8,41.78 88.8,37.86 	"/>
	<polygon class="st1" points="96.63,37.86 96.63,41.78 96.63,45.69 100.56,45.69 100.56,49.61 104.47,49.61 104.47,45.69 
		104.47,41.78 104.47,37.86 100.56,37.86 	"/>
	<polygon class="st1" points="92.72,41.78 88.8,41.78 88.8,45.69 88.8,49.61 88.8,57.45 92.72,57.45 92.72,49.61 96.63,49.61 
		96.63,45.69 92.72,45.69 	"/>
	<rect x="10.43" y="45.69" class="st1" width="3.92" height="7.84"/>
	<rect x="49.61" y="45.69" class="st1" width="3.92" height="3.92"/>
	<rect x="57.45" y="37.86" class="st1" width="3.92" height="3.92"/>
	<rect x="6.51" y="49.61" class="st1" width="3.92" height="3.92"/>
	<polygon class="st1" points="22.18,49.61 26.1,49.61 26.1,45.69 26.1,41.78 22.18,41.78 22.18,45.69 18.26,45.69 18.26,49.61 
		18.26,53.53 22.18,53.53 	"/>
	<polygon class="st1" points="33.94,53.53 37.86,53.53 37.86,57.45 33.94,57.45 33.94,61.36 37.86,61.36 37.86,65.29 41.78,65.29 
		45.69,65.29 45.69,61.36 45.69,57.45 45.69,53.53 45.69,49.61 41.78,49.61 41.78,45.69 45.69,45.69 49.61,45.69 49.61,41.78 
		49.61,37.86 53.53,37.86 57.45,37.86 57.45,33.94 57.45,30.02 53.53,30.02 53.53,33.94 49.61,33.94 49.61,30.02 45.69,30.02 
		45.69,33.94 45.69,37.86 41.78,37.86 41.78,33.94 41.78,30.02 41.78,26.1 45.69,26.1 49.61,26.1 49.61,30.02 53.53,30.02 
		53.53,26.1 53.53,22.18 49.61,22.18 49.61,18.26 53.53,18.26 57.45,18.26 57.45,22.18 61.37,22.18 61.37,18.26 61.37,14.34 
		61.37,10.43 57.45,10.43 57.45,6.51 53.53,6.51 49.61,6.51 49.61,10.43 53.53,10.43 53.53,14.34 49.61,14.34 49.61,10.43 
		45.69,10.43 41.78,10.43 41.78,6.51 37.86,6.51 37.86,10.43 37.86,14.34 41.78,14.34 45.69,14.34 45.69,18.26 45.69,22.18 
		41.78,22.18 37.86,22.18 37.86,26.1 37.86,30.02 37.86,33.94 37.86,37.86 37.86,41.78 37.86,45.69 33.94,45.69 30.02,45.69 
		30.02,49.61 33.94,49.61 	"/>
	<rect x="14.34" y="53.53" class="st1" width="3.92" height="3.91"/>
	<polygon class="st1" points="26.1,57.45 30.02,57.45 33.94,57.45 33.94,53.53 30.02,53.53 30.02,49.61 26.1,49.61 26.1,53.53 	"/>
	<polygon class="st1" points="100.56,57.45 96.63,57.45 96.63,61.36 100.56,61.36 100.56,69.21 104.47,69.21 104.47,61.36 
		104.47,57.45 104.47,53.53 100.56,53.53 	"/>
	<polygon class="st1" points="10.43,61.36 6.51,61.36 6.51,65.29 10.43,65.29 14.34,65.29 14.34,61.36 14.34,57.45 10.43,57.45 	"/>
	<polygon class="st1" points="33.94,65.29 33.94,61.36 30.02,61.36 26.1,61.36 26.1,65.29 22.18,65.29 22.18,61.36 26.1,61.36 
		26.1,57.45 22.18,57.45 18.26,57.45 18.26,61.36 18.26,65.29 18.26,69.21 22.18,69.21 26.1,69.21 30.02,69.21 30.02,65.29 	"/>
	<polygon class="st1" points="88.8,61.36 88.8,65.29 92.72,65.29 96.63,65.29 96.63,61.36 92.72,61.36 	"/>
	<rect x="57.45" y="65.29" class="st1" width="7.83" height="3.92"/>
	<polygon class="st1" points="10.43,69.21 6.51,69.21 6.51,73.12 10.43,73.12 14.34,73.12 18.26,73.12 18.26,69.21 14.34,69.21 	"/>
	<path class="st1" d="M65.28,69.21v3.91h3.92v3.92v3.92h-3.92h-3.91v3.92v3.92h3.91h3.92v3.92h-3.92v3.92h-3.91v3.92h-3.92v-3.92
		v-3.92h3.92V88.8h-3.92v-3.92h-3.92h-3.92v-3.92h3.92v-3.92h-3.92v-3.92v-3.91h3.92h3.92v-3.92v-3.92h8.76v-3.92h-8.76v-3.91h-3.92
		h-3.92v3.91h3.92v3.92v3.92h-3.92h-3.92v3.92v3.91h-3.92v-3.91h-3.92h-3.92h-3.92v3.91h3.92h3.92v3.92h3.92h3.92v3.92v3.92v3.92
		h3.92h3.92v3.92v3.92h-3.92v3.92h3.92v3.92h3.92h3.92h3.91v-3.92h3.92v3.92h3.92h3.92v-3.92v-3.92v-3.92V88.8h3.92v3.92h3.91v3.92
		h-3.91v3.92h3.91h3.92v-3.92v-3.92h3.92h3.92v3.92h3.92h3.92v-3.92h-3.92V88.8h-3.92h-3.92v-3.92H88.8v-3.92h3.92v-3.92H88.8v-3.92
		v-3.91h-3.92v-3.92h-3.91h-3.92v3.92h-3.92v-3.92H69.2v3.92H65.28z M77.04,73.12h3.92h3.91v3.92v3.92v3.92h-3.91h-3.92h-3.92v-3.92
		v-3.92v-3.92H77.04z"/>
	<rect x="96.63" y="69.21" class="st1" width="3.92" height="3.91"/>
	<polygon class="st1" points="61.37,73.12 57.45,73.12 57.45,77.04 57.45,80.96 61.37,80.96 61.37,77.04 	"/>
	<rect x="92.72" y="73.12" class="st1" width="3.92" height="3.92"/>
	<path d="M26.1,77.04h-3.91h-3.92h-3.92h-3.92H6.51v3.92v3.92v3.92v3.92v3.92v3.92v3.92h3.92h3.92h3.92h3.92h3.91h3.92h3.92v-3.92
		v-3.92v-3.92V88.8v-3.92v-3.92v-3.92h-3.92H26.1z M30.02,84.88v3.92v3.92v3.92v3.92H26.1h-3.91h-3.92h-3.92h-3.92v-3.92v-3.92V88.8
		v-3.92v-3.92h3.92h3.92h3.92h3.91h3.92V84.88z"/>
	<rect x="77.04" y="77.04" class="st1" width="3.92" height="3.92"/>
	<polygon class="st1" points="100.56,80.96 96.63,80.96 96.63,84.88 100.56,84.88 100.56,88.8 104.47,88.8 104.47,84.88 
		104.47,80.96 104.47,77.04 104.47,73.12 100.56,73.12 100.56,77.04 	"/>
	<rect x="37.86" y="80.96" class="st1" width="3.92" height="3.92"/>
	<polygon points="18.26,84.88 14.34,84.88 14.34,88.8 14.34,92.72 14.34,96.64 18.26,96.64 22.18,96.64 26.1,96.64 26.1,92.72 
		26.1,88.8 26.1,84.88 22.18,84.88 	"/>
	<polygon class="st1" points="41.78,92.72 37.86,92.72 37.86,96.64 37.86,100.56 37.86,104.47 41.78,104.47 49.61,104.47 
		49.61,100.56 41.78,100.56 41.78,96.64 45.69,96.64 45.69,92.72 45.69,88.8 41.78,88.8 	"/>
	<rect x="88.8" y="100.56" class="st1" width="3.92" height="3.92"/>
	<rect x="100.56" y="100.56" class="st1" width="3.92" height="3.92"/>
</g>
<path class="st2" d="M98.81,65.03H12.17c-1.24,0-2.24-1-2.24-2.24V48.18c0-1.24,1-2.24,2.24-2.24h86.65c1.24,0,2.24,1,2.24,2.24
	V62.8C101.05,64.03,100.05,65.03,98.81,65.03z"/>
<g>
	<path class="st3" d="M22.46,50.02v2.48c-0.64-0.29-1.27-0.5-1.88-0.65s-1.19-0.22-1.73-0.22c-0.72,0-1.26,0.1-1.6,0.3
		s-0.52,0.51-0.52,0.93c0,0.31,0.12,0.56,0.35,0.73c0.23,0.17,0.66,0.33,1.27,0.45l1.29,0.26c1.3,0.26,2.23,0.66,2.78,1.19
		c0.55,0.53,0.82,1.29,0.82,2.28c0,1.29-0.38,2.25-1.15,2.88c-0.77,0.63-1.94,0.95-3.51,0.95c-0.74,0-1.49-0.07-2.24-0.21
		c-0.75-0.14-1.5-0.35-2.24-0.63v-2.55c0.75,0.4,1.47,0.7,2.17,0.9c0.7,0.2,1.37,0.3,2.02,0.3c0.66,0,1.16-0.11,1.52-0.33
		c0.35-0.22,0.53-0.53,0.53-0.94c0-0.37-0.12-0.65-0.36-0.85c-0.24-0.2-0.71-0.38-1.42-0.53l-1.17-0.26
		c-1.17-0.25-2.03-0.65-2.57-1.2s-0.81-1.29-0.81-2.22c0-1.17,0.38-2.06,1.13-2.69s1.84-0.94,3.25-0.94c0.64,0,1.31,0.05,1.99,0.15
		S21.74,49.83,22.46,50.02z"/>
	<path class="st3" d="M35.18,60.73c-0.55,0.29-1.13,0.5-1.73,0.65c-0.6,0.15-1.23,0.22-1.88,0.22c-1.95,0-3.5-0.55-4.64-1.64
		s-1.71-2.57-1.71-4.44c0-1.87,0.57-3.36,1.71-4.45s2.69-1.64,4.64-1.64c0.65,0,1.28,0.07,1.88,0.22c0.6,0.15,1.18,0.36,1.73,0.65
		v2.43c-0.56-0.38-1.11-0.66-1.66-0.84s-1.12-0.27-1.72-0.27c-1.08,0-1.93,0.35-2.54,1.04c-0.62,0.69-0.93,1.64-0.93,2.86
		c0,1.21,0.31,2.16,0.93,2.85c0.62,0.69,1.47,1.04,2.54,1.04c0.6,0,1.17-0.09,1.72-0.27c0.54-0.18,1.1-0.46,1.66-0.84V60.73z"/>
	<path class="st3" d="M44.8,59.24h-4.73l-0.75,2.13h-3.04l4.34-11.72h3.6l4.34,11.72h-3.04L44.8,59.24z M40.82,57.06h3.21l-1.6-4.66
		L40.82,57.06z"/>
	<path class="st3" d="M50.13,49.65h3.38l4.26,8.04v-8.04h2.87v11.72h-3.38l-4.26-8.04v8.04h-2.86V49.65z"/>
	<path class="st3" d="M69.18,49.65h3.85l2.67,6.27l2.68-6.27h3.84v11.72h-2.86V52.8l-2.7,6.32h-1.92l-2.7-6.32v8.57h-2.86V49.65z"/>
	<path class="st3" d="M85.17,49.65h8.16v2.28h-5.13v2.18h4.83v2.28h-4.83v2.68h5.31v2.28h-8.33V49.65z"/>
</g>
</svg>
